<svg xmlns="http://www.w3.org/2000/svg" width="164" height="102" viewBox="0 0 164 102">
  <g id="CH_logo_vertical" transform="translate(-219.4 -236.9)">
    <g id="Grupo_531" data-name="Grupo 531" transform="translate(219.4 283.375)">
      <path id="Caminho_1019" data-name="Caminho 1019" d="M221.568,439.563a7.632,7.632,0,0,1-2.168-5.626V415.7a7.929,7.929,0,0,1,13.385-5.626,7.632,7.632,0,0,1,2.167,5.626v3.859h-4.877V415.7a3.216,3.216,0,0,0-.786-2.256,2.938,2.938,0,0,0-4.118,0,3.1,3.1,0,0,0-.786,2.256v18.237a3.215,3.215,0,0,0,.786,2.256,2.937,2.937,0,0,0,4.118,0,3.1,3.1,0,0,0,.786-2.256v-4.7h4.877v4.7a7.929,7.929,0,0,1-13.384,5.626Z" transform="translate(-219.4 -407.9)"/>
    </g>
    <g id="Grupo_532" data-name="Grupo 532" transform="translate(237.932 283.864)">
      <path id="Caminho_1020" data-name="Caminho 1020" d="M299.18,435.3h-5.338l-1.084,7.284H287.8l5.446-32.886h6.638l5.446,32.886h-5.067Zm-.65-4.81-2.005-13.779-2,13.779Z" transform="translate(-287.8 -409.7)"/>
    </g>
    <g id="Grupo_533" data-name="Grupo 533" transform="translate(255.706 283.837)">
      <path id="Caminho_1021" data-name="Caminho 1021" d="M353.427,409.6H369.25v4.7H363.8v28.184h-4.958V414.3H353.4v-4.7Z" transform="translate(-353.4 -409.6)"/>
    </g>
    <g id="Grupo_534" data-name="Grupo 534" transform="translate(275.403 283.864)">
      <path id="Caminho_1022" data-name="Caminho 1022" d="M426.1,442.586V409.7h4.958v13.861h5.907V409.7h4.958v32.886h-4.958V428.263h-5.907v14.323Z" transform="translate(-426.1 -409.7)"/>
    </g>
    <g id="Grupo_535" data-name="Grupo 535" transform="translate(295.074 283.864)">
      <path id="Caminho_1023" data-name="Caminho 1023" d="M510.08,435.3h-5.338l-1.084,7.284H498.7l5.446-32.886h6.665l5.446,32.886H511.19Zm-.65-4.81-2.005-13.779-2,13.779Z" transform="translate(-498.7 -409.7)"/>
    </g>
    <g id="Grupo_536" data-name="Grupo 536" transform="translate(316.451 283.864)">
      <path id="Caminho_1024" data-name="Caminho 1024" d="M588.736,442.586,585.132,429h-2.574v13.589H577.6V409.7h7.776a7.524,7.524,0,0,1,5.663,2.147,7.726,7.726,0,0,1,2.113,5.707v3.615a8.671,8.671,0,0,1-.894,4,6.594,6.594,0,0,1-2.52,2.718l4.173,14.7Zm-6.2-18.291h2.574a3.1,3.1,0,0,0,2.249-.788,3.014,3.014,0,0,0,.786-2.256v-3.8a3.125,3.125,0,0,0-.786-2.256,2.993,2.993,0,0,0-2.249-.788h-2.574Z" transform="translate(-577.6 -409.7)"/>
    </g>
    <g id="Grupo_537" data-name="Grupo 537" transform="translate(336.798 283.837)">
      <path id="Caminho_1025" data-name="Caminho 1025" d="M652.7,409.6h4.958v32.886H652.7Z" transform="translate(-652.7 -409.6)"/>
    </g>
    <g id="Grupo_538" data-name="Grupo 538" transform="translate(347.175 283.837)">
      <path id="Caminho_1026" data-name="Caminho 1026" d="M691.027,409.6H696.5l6.313,22.1V409.6h4.877v32.886h-5.256l-6.557-21.063v21.063H691V409.6Z" transform="translate(-691 -409.6)"/>
    </g>
    <g id="Grupo_539" data-name="Grupo 539" transform="translate(369.311 283.837)">
      <path id="Caminho_1027" data-name="Caminho 1027" d="M772.7,409.6h14.089v4.7h-9.131v9.159h7.261v4.7h-7.261v9.621h9.131v4.7H772.7Z" transform="translate(-772.7 -409.6)"/>
    </g>
    <g id="Grupo_544" data-name="Grupo 544" transform="translate(285.618 322.457)">
      <g id="Grupo_540" data-name="Grupo 540" transform="translate(0)">
        <path id="Caminho_1028" data-name="Caminho 1028" d="M463.8,568.143V551.7h2.493v6.931h2.953V551.7h2.493v16.443h-2.493v-7.175h-2.953v7.175Z" transform="translate(-463.8 -551.7)"/>
      </g>
      <g id="Grupo_541" data-name="Grupo 541" transform="translate(10.648)">
        <path id="Caminho_1029" data-name="Caminho 1029" d="M503.1,551.7h2.493v16.443H503.1Z" transform="translate(-503.1 -551.7)"/>
      </g>
      <g id="Grupo_542" data-name="Grupo 542" transform="translate(15.85)">
        <path id="Caminho_1030" data-name="Caminho 1030" d="M522.3,551.7h2.493v14.105h4.416v2.337H522.3Z" transform="translate(-522.3 -551.7)"/>
      </g>
      <g id="Grupo_543" data-name="Grupo 543" transform="translate(24.683)">
        <path id="Caminho_1031" data-name="Caminho 1031" d="M554.9,551.7h2.493v14.105h4.416v2.337H554.9Z" transform="translate(-554.9 -551.7)"/>
      </g>
    </g>
    <g id="Grupo_545" data-name="Grupo 545" transform="translate(284.561 236.9)">
      <path id="Caminho_1032" data-name="Caminho 1032" d="M506.335,282.722l1.978-1.06-6.34-11.9h-1.734l-1.707,3.778L493.168,262.8h-1.734l-3.441,7.556h-2.113l-.813.489L480,281.716l2.005.951,4.741-10.083h2.113l.786-.516,2.709-5.9,8.237,16.524,1.978-1.006-2.764-5.571,1.382-3.044Z" transform="translate(-474.554 -255.761)"/>
      <path id="Caminho_1033" data-name="Caminho 1033" d="M489.487,268.481a16.66,16.66,0,1,1,0-25.33l.406.353,1.463-1.712-.406-.353a18.856,18.856,0,1,0-12.219,33.239,18.688,18.688,0,0,0,12.219-4.539l.406-.353-1.463-1.712Z" transform="translate(-459.9 -236.9)"/>
    </g>
  </g>
</svg>
