<svg xmlns="http://www.w3.org/2000/svg" xmlns:xlink="http://www.w3.org/1999/xlink" width="1196" height="141" viewBox="0 0 1196 141">
  <defs>
    <clipPath id="clip-path">
      <rect id="Retângulo_1902" data-name="Retângulo 1902" width="1196" height="141" rx="70.5" transform="translate(85)" fill="#f5f5f5"/>
    </clipPath>
  </defs>
  <g id="bg-sobre" transform="translate(-85)">
    <rect id="Retângulo_1900" data-name="Retângulo 1900" width="1196" height="141" rx="70.5" transform="translate(85)" fill="#f5f5f5"/>
    <g id="Grupo_de_máscara_4" data-name="Grupo de máscara 4" clip-path="url(#clip-path)">
      <g id="CH_graf" transform="translate(85 -0.667)">
        <g id="Grupo_569" data-name="Grupo 569">
          <path id="Caminho_1075" data-name="Caminho 1075" d="M258.763,576.2l7.494-3.967-24-44.8-6.557.117-6.557,14.117L208.882,501.3h-6.557l-13,28.35h-8.079l-3.044,1.867L159,572.467l7.611,3.617,17.915-38.033h8.079l2.927-1.867,10.3-22.167,31.147,62.067,7.611-3.733-10.538-21,5.269-11.433Z" transform="translate(-138.157 -475.05)" fill="#ececec"/>
          <path id="Caminho_1076" data-name="Caminho 1076" d="M253.492,597.45a62.65,62.65,0,1,1,0-95.2l1.522,1.283,5.5-6.417L259,495.833A71.167,71.167,0,1,0,259,604.1l1.522-1.283-5.5-6.417Z" transform="translate(-141.2 -478.8)" fill="#ececec"/>
        </g>
      </g>
    </g>
  </g>
</svg>
