<svg xmlns="http://www.w3.org/2000/svg" width="241" height="40" viewBox="0 0 241 40">
    <g id="devvinci" transform="translate(127.805 -18.19)">
        <g id="logo_vinci" data-name="logo vinci" transform="translate(15.195 18.19)">
        <path id="Caminho_408" data-name="Caminho 408" d="M72.872,34.694,66,18.159h2.042L73.1,30.506l5.236-12.355h1.986L73.358,34.694ZM56.092,47.9a2.052,2.052,0,1,1-2.031,2.052A2.042,2.042,0,0,1,56.092,47.9Zm0,.842a1.21,1.21,0,1,1-1.2,1.21,1.2,1.2,0,0,1,1.2-1.21Zm-3.125-6.683a2.757,2.757,0,1,1-2.729,2.757,2.743,2.743,0,0,1,2.729-2.757Zm0,1.015a1.743,1.743,0,1,1-1.725,1.742,1.734,1.734,0,0,1,1.725-1.742Zm-15.248-29.2a8.161,8.161,0,0,1,3.207.8A7.175,7.175,0,0,1,53.362,17.01a7.542,7.542,0,0,1,3.267.556,7.352,7.352,0,0,1,4.321,6.052A7.267,7.267,0,0,1,60.2,27.3a7.917,7.917,0,0,1,.77,1.1,7.2,7.2,0,0,1-4.774,10.491,10.606,10.606,0,0,1-3.183-.038,6.07,6.07,0,0,1-.837,1.365,7.022,7.022,0,0,1-9.194,1.641,8.191,8.191,0,0,1-1.177-.9,8.2,8.2,0,0,1-2,1.048,7.115,7.115,0,0,1-9.231-4.9,6.963,6.963,0,0,1-.2-2.269,6.986,6.986,0,0,1-3.786-2.649,7.208,7.208,0,0,1,3.87-11.115,7.709,7.709,0,0,1,1.166-4.048,6.863,6.863,0,0,1,6.1-3.15Zm2.812,2.568a.942.942,0,0,0,1.5-.232,5.372,5.372,0,0,1,3-2.357,5.46,5.46,0,0,1,6.293,2.635,6.833,6.833,0,0,1,.412.913c.078.209.131.5.207.758a.733.733,0,0,0,.869.64c.263-.006.539-.062.77-.078a5.033,5.033,0,0,1,1.759.189,5.575,5.575,0,0,1,3.624,3.376,5.139,5.139,0,0,1-.518,4.658.711.711,0,0,0,.042,1.031,4.215,4.215,0,0,1,1,1.272,5.732,5.732,0,0,1,.311,4.79,5.488,5.488,0,0,1-5.626,3.282c-.451-.063-1.412-.392-1.685-.363a.673.673,0,0,0-.144.031c-.6.2-.665.922-1.024,1.54a5.738,5.738,0,0,1-3.635,2.6A5.611,5.611,0,0,1,42.509,39.3a.861.861,0,0,0-.708-.38c-.5.026-.832.537-1.215.826a5.427,5.427,0,0,1-8.568-4.225c-.03-.5.129-1.228.079-1.535-.058-.363-.338-.6-.9-.685a4.5,4.5,0,0,1-1.691-.67,5.237,5.237,0,0,1-2.576-5,5.362,5.362,0,0,1,3.492-4.735c.445-.173,1.055-.227,1.355-.364.411-.187.486-.612.389-1.213a5.4,5.4,0,0,1,8.364-4.872Zm41.784,17.9H84.22V18.183H82.314V34.336Zm38.81-.032h1.906V18.151h-1.906V34.3Zm-3.958-11.923,1.459-1.137a8.341,8.341,0,0,0-6.489-3.456,8.607,8.607,0,0,0-5.7,1.5,7.541,7.541,0,0,0-3.119,4.3,9.02,9.02,0,0,0-.421,2.937A8.341,8.341,0,0,0,105,31.9a9.225,9.225,0,0,0,12.043,1.026,7.379,7.379,0,0,0,1.577-1.6l-1.459-1.136a6.969,6.969,0,0,1-4.937,2.644,6.831,6.831,0,0,1-5.642-2.09,6.22,6.22,0,0,1-1.672-4.943,6.472,6.472,0,0,1,2.473-4.714,5.963,5.963,0,0,1,4.164-1.463c2.537.028,3.9.936,5.614,2.757ZM87.476,18.16h.607L98.26,29.994V18.155h1.853V34.309h-.6L89.437,22.619v11.69H87.471l0-16.149Z" transform="translate(-25.236 -12)" fill="#fff" fill-rule="evenodd"/>
        <path id="Caminho_409" data-name="Caminho 409" d="M319.6,176.4l-.86,2.013h1.722L319.6,176.4Zm0-1.438,2.463,5.684h-.7l-.7-1.676h-2.115l-.7,1.676h-.7l2.454-5.684Zm5.549,3.985a1.349,1.349,0,0,0-.31-.927,1.154,1.154,0,0,0-1.631-.025,1.312,1.312,0,0,0-.292.908,1.411,1.411,0,0,0,.294.956,1.047,1.047,0,0,0,.834.336,1.031,1.031,0,0,0,.811-.33,1.337,1.337,0,0,0,.294-.918Zm.561-1.718v3.358a2.947,2.947,0,0,1-.075.792,1.114,1.114,0,0,1-.243.423,1.471,1.471,0,0,1-.578.384,2.231,2.231,0,0,1-.786.127,1.836,1.836,0,0,1-1.2-.354,1.282,1.282,0,0,1-.449-1.006h.651v.045a.717.717,0,0,0,.262.6,1.167,1.167,0,0,0,.742.209,1.412,1.412,0,0,0,.593-.114.823.823,0,0,0,.376-.339.873.873,0,0,0,.11-.295,2.586,2.586,0,0,0,.034-.482v-.575a1.449,1.449,0,0,1-.514.561,1.329,1.329,0,0,1-.714.2,1.493,1.493,0,0,1-1.173-.5,2.229,2.229,0,0,1-.013-2.656,1.463,1.463,0,0,1,1.157-.491,1.4,1.4,0,0,1,.739.192,1.327,1.327,0,0,1,.5.565v-.635Zm3.57,1.323a.988.988,0,0,0-.3-.7,1.045,1.045,0,0,0-.733-.245,1,1,0,0,0-.7.256,1.028,1.028,0,0,0-.325.686Zm.621.474h-2.68v.052a1.255,1.255,0,0,0,.31.886,1.047,1.047,0,0,0,.81.338,1.068,1.068,0,0,0,.613-.185,1.606,1.606,0,0,0,.484-.558l.439.3a1.778,1.778,0,0,1-.65.7,1.76,1.76,0,0,1-.917.236,1.624,1.624,0,0,1-1.249-.515,1.913,1.913,0,0,1-.477-1.352,1.861,1.861,0,0,1,.473-1.314,1.583,1.583,0,0,1,1.216-.511,1.522,1.522,0,0,1,1.188.486,1.909,1.909,0,0,1,.438,1.326v.116Zm-2.757-2.335.728-1.3h.725l.728,1.3h-.454l-.636-.855-.644.855Zm3.63,3.955v-3.417h.565v.528a1.423,1.423,0,0,1,.525-.489,1.509,1.509,0,0,1,.71-.161,1.3,1.3,0,0,1,.935.321,1.175,1.175,0,0,1,.337.892v2.326h-.592v-2.013a1.159,1.159,0,0,0-.216-.77.834.834,0,0,0-.667-.252,1.136,1.136,0,0,0-.472.1.919.919,0,0,0-.353.27.831.831,0,0,0-.153.306,2.578,2.578,0,0,0-.047.6v1.765Zm6.812-.81v.679a1.775,1.775,0,0,1-.516.208,2.645,2.645,0,0,1-.619.069,1.664,1.664,0,0,1-1.263-.5,1.834,1.834,0,0,1-.478-1.319,1.866,1.866,0,0,1,.5-1.342,1.667,1.667,0,0,1,1.266-.521,2.523,2.523,0,0,1,.549.06,2.269,2.269,0,0,1,.5.175v.628a1.9,1.9,0,0,0-.458-.223,1.558,1.558,0,0,0-.481-.076,1.2,1.2,0,0,0-.913.361,1.332,1.332,0,0,0-.343.957,1.213,1.213,0,0,0,.346.882,1.164,1.164,0,0,0,.867.354,1.457,1.457,0,0,0,.514-.093,2.218,2.218,0,0,0,.528-.3Zm.7-4.254a.418.418,0,0,1,.123-.3.412.412,0,0,1,.3-.125.4.4,0,0,1,.3.127.422.422,0,0,1,.123.306.42.42,0,0,1-.421.422.411.411,0,0,1-.3-.124.417.417,0,0,1-.123-.306Zm.136,5.064v-3.417h.585v3.417Zm4.392-1.676a1.352,1.352,0,0,0-.313-.932,1.147,1.147,0,0,0-1.628-.028,1.309,1.309,0,0,0-.293.908,1.4,1.4,0,0,0,.294.955,1.048,1.048,0,0,0,.834.337,1.036,1.036,0,0,0,.812-.326,1.321,1.321,0,0,0,.294-.913Zm.561-1.741v3.417h-.561v-.621a1.475,1.475,0,0,1-.52.57,1.313,1.313,0,0,1-.708.2,1.485,1.485,0,0,1-1.173-.506,1.953,1.953,0,0,1-.446-1.338,1.977,1.977,0,0,1,.433-1.342,1.454,1.454,0,0,1,1.157-.5,1.3,1.3,0,0,1,1.241.765v-.643Zm4.1,2.806h.41a7.242,7.242,0,0,0,1.383-.088,1.5,1.5,0,0,0,.639-.3,1.752,1.752,0,0,0,.506-.723,3.047,3.047,0,0,0,0-2.024,1.786,1.786,0,0,0-.508-.719,1.52,1.52,0,0,0-.648-.307,6.949,6.949,0,0,0-1.374-.092h-.41v4.254Zm-.651.612v-5.467h1.04a7.687,7.687,0,0,1,1.624.117,2.2,2.2,0,0,1,.826.394,2.294,2.294,0,0,1,.707.927,3.637,3.637,0,0,1,0,2.594,2.27,2.27,0,0,1-.708.924,2.217,2.217,0,0,1-.807.394,6.171,6.171,0,0,1-1.411.117Zm5.323-5.064a.424.424,0,0,1,.425-.426.4.4,0,0,1,.3.127.422.422,0,0,1,.124.306.42.42,0,0,1-.422.422.422.422,0,0,1-.425-.43Zm.136,5.064v-3.417h.584v3.417Zm4.392-1.7a1.348,1.348,0,0,0-.311-.927,1.154,1.154,0,0,0-1.632-.025,1.314,1.314,0,0,0-.291.908,1.41,1.41,0,0,0,.294.956,1.047,1.047,0,0,0,.834.336,1.032,1.032,0,0,0,.812-.33,1.339,1.339,0,0,0,.294-.918Zm.561-1.718v3.358a2.932,2.932,0,0,1-.075.792,1.106,1.106,0,0,1-.243.423,1.472,1.472,0,0,1-.578.384,2.234,2.234,0,0,1-.786.127,1.835,1.835,0,0,1-1.2-.354,1.281,1.281,0,0,1-.45-1.006h.651v.045a.716.716,0,0,0,.263.6,1.165,1.165,0,0,0,.742.209,1.409,1.409,0,0,0,.592-.114.82.82,0,0,0,.376-.339.874.874,0,0,0,.11-.295,2.59,2.59,0,0,0,.034-.482v-.575a1.456,1.456,0,0,1-.514.561,1.329,1.329,0,0,1-.714.2,1.493,1.493,0,0,1-1.173-.5,2.228,2.228,0,0,1-.013-2.656,1.463,1.463,0,0,1,1.157-.491,1.4,1.4,0,0,1,.739.192,1.323,1.323,0,0,1,.5.565v-.635Zm1.065-1.647a.414.414,0,0,1,.124-.3.41.41,0,0,1,.3-.125.4.4,0,0,1,.3.127.425.425,0,0,1,.124.306.406.406,0,0,1-.122.3.4.4,0,0,1-.3.124.409.409,0,0,1-.3-.124.414.414,0,0,1-.124-.306Zm.136,5.064v-3.417h.584v3.417Zm1.892-2.935h-.621v-.482h.621v-1.378h.592v1.378h.621v.482h-.621v2.935h-.592v-2.935Zm4.459,1.259a1.351,1.351,0,0,0-.313-.932,1.147,1.147,0,0,0-1.627-.028,1.308,1.308,0,0,0-.293.908,1.407,1.407,0,0,0,.294.955,1.049,1.049,0,0,0,.834.337,1.035,1.035,0,0,0,.811-.326,1.319,1.319,0,0,0,.294-.913Zm.561-1.741v3.417h-.561v-.621a1.475,1.475,0,0,1-.52.57,1.312,1.312,0,0,1-.708.2,1.485,1.485,0,0,1-1.173-.506,1.953,1.953,0,0,1-.445-1.338,1.977,1.977,0,0,1,.432-1.342,1.453,1.453,0,0,1,1.157-.5,1.3,1.3,0,0,1,1.241.765v-.643Zm1.186,3.417v-5.788h.592v5.788Z" transform="translate(-269.131 -147.79)" fill="#fff" fill-rule="evenodd"/>
        </g>
        <text id="Desenvolvido_por" data-name="Desenvolvido por" transform="translate(-4.805 43.191)" fill="#fff" font-size="14" font-family="Montserrat-Light, Montserrat" font-weight="300" letter-spacing="0.01em"><tspan x="-122" y="0">Desenvolvido por</tspan></text>
    </g>
</svg>