<svg id="ico-peppery" xmlns="http://www.w3.org/2000/svg" viewBox="0 0 17.077 12.151"><g id="Grupo_3866" data-name="Grupo 3866" transform="matrix(0.985, 0.174, -0.174, 0.985, -1707.977, -539.852)"><g id="Grupo_3868" data-name="Grupo 3868" transform="translate(1777.179 235.419)"><g id="Grupo_3867" data-name="Grupo 3867"><path id="Caminho_5228" data-name="Caminho 5228" d="M1792.424,241.387c.131-.164.685-.72.656-.815a6.392,6.392,0,0,0-.7.322,3.965,3.965,0,0,1-1.546.481c-4.4.515-5.009-.576-5.49-.862-.877-.523-1.749-1.485-3.8-3.744-.9-.769-2.734-1.194-3.191,1-.292,1.4,1.347,3.093,2.08,3.693,2.056,1.681,5.017,3.141,7.433,2.406A11.531,11.531,0,0,0,1792.424,241.387Z" transform="translate(-1777.58 -235.675)" fill="none" stroke="#e6c6c8" stroke-linecap="round" stroke-linejoin="bevel" stroke-width="1"></path><g id="Grupo_3866-2" data-name="Grupo 3866"><path id="Caminho_5229" data-name="Caminho 5229" d="M1779.1,238.047a1.025,1.025,0,0,1,.04-.574.9.9,0,0,0,.046-.528c.217.476.968-.03.968-.03s-.165-.037-.273-.294-.235-.25-.235-.25l.3-.189a.924.924,0,0,0,.378-.505.862.862,0,0,1-.385.208,2.356,2.356,0,0,0-1.1.508,1.946,1.946,0,0,0-.494,1.863c0-.132.165-.255.276-.441a1.278,1.278,0,0,0,.108-.346A.909.909,0,0,0,1779.1,238.047Z" transform="translate(-1777.567 -235.509)" fill="none" stroke="#e6c6c8" stroke-linecap="round" stroke-linejoin="bevel" stroke-width="1"></path><path id="Caminho_5230" data-name="Caminho 5230" d="M1777.953,238.164a1.992,1.992,0,0,1,.41-1.779l0,0a.865.865,0,0,0-.582-.572.838.838,0,0,0-.507,0s-.2-.091-.01-.359c.877-.222,1.271.775,1.271.775v.006a.637.637,0,0,0,.852.475.744.744,0,0,0-.128-.428.149.149,0,0,1,.066.022.445.445,0,0,1,.169.228c.108.257.273.294.273.294s-.751.506-.968.03a.9.9,0,0,1-.046.528,1.024,1.024,0,0,0-.04.574.911.911,0,0,1-.375-.58,1.283,1.283,0,0,1-.107.346C1778.118,237.908,1777.957,238.032,1777.953,238.164Z" transform="translate(-1777.179 -235.419)" fill="none" stroke="#e6c6c8" stroke-linecap="round" stroke-linejoin="bevel" stroke-width="1"></path></g></g></g></g></svg>