<svg id="cruelty" xmlns="http://www.w3.org/2000/svg" width="126" height="126" viewBox="0 0 126 126">
  <g id="Grupo_93" data-name="Grupo 93" transform="translate(0 0)">
    <path id="Caminho_153" data-name="Caminho 153" d="M498.223,404.049a.963.963,0,0,1-.477-.136l-.289-.187c-5.651-3.592-22.487-15.337-22.487-27.474v-.034a10.695,10.695,0,0,1,8.528-10.843h.034a13.91,13.91,0,0,1,3.251-.375,14.2,14.2,0,0,1,10.571,4.7l.885.987.885-.987a14.141,14.141,0,0,1,6.3-4.051,14.3,14.3,0,0,1,4.239-.647,13.91,13.91,0,0,1,3.251.375h.034a10.658,10.658,0,0,1,8.528,10.077v.783c0,12.358-17.431,24.291-22.776,27.644A.714.714,0,0,1,498.223,404.049Zm-21.465-27.764c.034,10.588,14.571,21.3,20.818,25.4l.647.426.647-.426c6.247-4.1,20.8-14.792,20.818-25.4a8.948,8.948,0,0,0-7.234-9.192,12.2,12.2,0,0,0-7.677.7A12.182,12.182,0,0,0,499.04,373l-.017.051a.9.9,0,0,1-1.6,0l-.017-.034-.017-.034a12.357,12.357,0,0,0-10.69-6.2,12.259,12.259,0,0,0-2.724.306,8.913,8.913,0,0,0-7.218,9.192Z" transform="translate(-423.052 -331.891)" fill="#a5a5a5"/>
    <path id="Caminho_154" data-name="Caminho 154" d="M453.644,291.986a4.926,4.926,0,0,1-2.145-.528,8.037,8.037,0,0,1-3.285-3.2c-1.8-3.132-1.481-6.588.732-7.881a4.109,4.109,0,0,1,1.906-.477,3.971,3.971,0,0,1,1.975.511l.017.017a8.532,8.532,0,0,1,4.409,8.018,3.953,3.953,0,0,1-1.872,3.081,3.309,3.309,0,0,1-1.736.46Zm-1.447-2.162a2.525,2.525,0,0,0,1.345.392,2.621,2.621,0,0,0,.732-.1l.272-.085.2-.187a2.546,2.546,0,0,0,.8-1.941,6.357,6.357,0,0,0-.919-3.37c-.085-.153-.17-.306-.272-.46l-.068-.119h-.017a6.246,6.246,0,0,0-2.111-1.889,3.193,3.193,0,0,0-1.345-.375h-.085a1.778,1.778,0,0,0-.834.2l-.034.017c-1.328.766-1.362,3.251-.119,5.43A6.152,6.152,0,0,0,452.2,289.824Z" transform="translate(-399.887 -261.277)" fill="#a5a5a5"/>
    <path id="Caminho_155" data-name="Caminho 155" d="M542.254,252.965a6.25,6.25,0,0,1-3.439-1.634,6.142,6.142,0,0,1-1.821-3.4l-.017-.051-.017-.051c-.936-3.49.272-6.741,2.775-7.4a3.086,3.086,0,0,1,.885-.119c2.23,0,4.426,2.162,5.226,5.158.936,3.49-.272,6.741-2.775,7.4A4.292,4.292,0,0,1,542.254,252.965Zm-1.992-10.86-.051.017c-1.464.392-2.162,2.792-1.5,5.243.664,2.485,2.315,3.83,3.524,3.83a2.093,2.093,0,0,0,.34-.034l.051-.017c1.481-.392,2.162-2.792,1.515-5.243-.664-2.485-2.3-3.83-3.507-3.83a2.1,2.1,0,0,0-.34.034Z" transform="translate(-474.232 -228.418)" fill="#a5a5a5"/>
    <path id="Caminho_156" data-name="Caminho 156" d="M719.633,291.986a3.441,3.441,0,0,1-1.736-.46,4.047,4.047,0,0,1-1.906-3.387,8.624,8.624,0,0,1,1.141-4.494,8.537,8.537,0,0,1,3.319-3.234,4.1,4.1,0,0,1,3.9-.034c2.213,1.294,2.536,4.749.732,7.864a7.815,7.815,0,0,1-3.3,3.217,4.648,4.648,0,0,1-2.145.528Zm-1.89-4.1a2.523,2.523,0,0,0,.8,1.958l.2.187.272.085a2.622,2.622,0,0,0,.732.1,2.525,2.525,0,0,0,1.345-.392,6.152,6.152,0,0,0,2.451-2.485,6.27,6.27,0,0,0,.9-3.081,2.562,2.562,0,0,0-1.021-2.366l-.034-.017a1.777,1.777,0,0,0-.834-.2h-.085a2.99,2.99,0,0,0-1.328.375l-.034.017A6.881,6.881,0,0,0,717.743,287.884Z" transform="translate(-623.048 -261.277)" fill="#a5a5a5"/>
    <path id="Caminho_157" data-name="Caminho 157" d="M416.724,250.948a40.224,40.224,0,1,1,0-80.448h.238a40.224,40.224,0,0,1-.238,80.448Zm-2.536-1.77h2.536a38.658,38.658,0,1,0-2.485-.085Z" transform="translate(-341.349 -170.5)" fill="#a5a5a5"/>
    <path id="Caminho_158" data-name="Caminho 158" d="M620.885,720.332a.95.95,0,0,1-.63-.255.874.874,0,0,1-.255-.63v-6.213a.95.95,0,0,1,.255-.63.874.874,0,0,1,.63-.255h1.175V696.671a.95.95,0,0,1,.255-.63.874.874,0,0,1,.63-.255h1.175v-8.818a2.924,2.924,0,0,1,.443-1.549,3.042,3.042,0,0,1,1.123-1.055l5.72-2.86a1.914,1.914,0,0,1,1.872.085,1.892,1.892,0,0,1,.919,1.634V695.8h1.175a.95.95,0,0,1,.63.255.874.874,0,0,1,.255.63v15.678h1.175a.951.951,0,0,1,.63.255.874.874,0,0,1,.255.63v6.213a.95.95,0,0,1-.255.63.874.874,0,0,1-.63.255H620.885Zm.885-1.77h14.792v-4.443H621.77Zm2.077-6.213h10.639V697.556H623.847Zm2.06-26.112v9.55h6.5v-12.8Z" transform="translate(-543.399 -594.349)" fill="#a5a5a5"/>
    <path id="Caminho_159" data-name="Caminho 159" d="M512.569,730.87l-2.06,22.742v4.1a2.964,2.964,0,0,1-2.962,2.962h-4.136a2.964,2.964,0,0,1-2.962-2.962v-4.1l-2.06-22.742a.968.968,0,0,1,.221-.681.889.889,0,0,1,.664-.289H511.7a.889.889,0,0,1,.664.289.9.9,0,0,1,.2.681m-10.35,28.019h6.5v-4.443h-6.5Zm-.068-6.213h6.656l1.906-21.006H500.228Z" transform="translate(-442.488 -634.677)" fill="#a5a5a5"/>
    <path id="Caminho_160" data-name="Caminho 160" d="M778.985,689.963a.95.95,0,0,1-.63-.255.874.874,0,0,1-.255-.63V660.088a5,5,0,0,1,1.481-3.558,5.068,5.068,0,0,1,3.558-1.481h1.175v-7.388a2.964,2.964,0,0,1,2.962-2.962h4.136a2.964,2.964,0,0,1,2.962,2.962v7.388h1.175a5,5,0,0,1,3.558,1.481,5.068,5.068,0,0,1,1.481,3.558v28.989a.95.95,0,0,1-.255.63.874.874,0,0,1-.63.255Zm.885-1.77H798.8V665.127H779.87Zm3.251-31.355a3.262,3.262,0,0,0-3.251,3.251v3.251H798.8v-3.251a3.262,3.262,0,0,0-3.251-3.251Zm2.962-1.77h6.5v-8.579h-6.5Z" transform="translate(-674.587 -563.98)" fill="#a5a5a5"/>
    <path id="Caminho_161" data-name="Caminho 161" d="M635.5,252.776a3.531,3.531,0,0,1-1.787-.017,4.064,4.064,0,0,1-2.673-2.809,8.553,8.553,0,0,1,2.417-8.6,4.138,4.138,0,0,1,3.779-1c2.468.715,3.626,3.983,2.638,7.439a7.965,7.965,0,0,1-2.417,3.932,4.483,4.483,0,0,1-1.958,1.055Zm-2.826-3.524a2.528,2.528,0,0,0,1.26,1.7l.238.136.272.017a2.609,2.609,0,0,0,.732-.068,2.548,2.548,0,0,0,1.209-.7,6.214,6.214,0,0,0,1.77-3,6.308,6.308,0,0,0,.119-3.2,2.551,2.551,0,0,0-1.566-2.043l-.051-.017a1.8,1.8,0,0,0-.851,0c-.017,0-.051.017-.068.017a3.27,3.27,0,0,0-1.209.681l-.034.034A6.844,6.844,0,0,0,632.678,249.253Z" transform="translate(-552.298 -228.366)" fill="#a5a5a5"/>
    <path id="Caminho_162" data-name="Caminho 162" d="M214.122,573.377H200.538V568.1a15.27,15.27,0,0,0-10.094-14.35v-7.813h2.894a.861.861,0,0,0,.63-.272l1.583-1.617h4.085a.879.879,0,0,0,.885-.885v-6.077a.879.879,0,0,0-.885-.885H180.979a4.94,4.94,0,0,0-4.936,4.937v3.915a.879.879,0,0,0,.885.885h3.456v7.728a15.394,15.394,0,0,0-9.737,10.06c-.017.034-.017.068-.034.1a15.55,15.55,0,0,0-.613,4.29v26.708a.879.879,0,0,0,.885.885H188.64v3.183a.879.879,0,0,0,.885.885h28.6a.879.879,0,0,0,.885-.885V578.3A4.871,4.871,0,0,0,214.122,573.377Zm3.132,4.919v3.149H190.427V578.3a3.153,3.153,0,0,1,3.149-3.149h20.546A3.149,3.149,0,0,1,217.254,578.3Zm-39.441-34.147v-3.03a3.16,3.16,0,0,1,3.166-3.166h17.771v4.307h-3.575a.862.862,0,0,0-.63.272l-1.583,1.617h-15.15Zm4.341,1.77h6.5v7.3a14.871,14.871,0,0,0-3.387-.391,14.434,14.434,0,0,0-3.115.323Zm3.115,8.681a13.481,13.481,0,0,1,12.511,8.477H172.758A13.507,13.507,0,0,1,185.269,554.6Zm-13.482,39.3V568.1a13.464,13.464,0,0,1,.392-3.234h26.18a13.57,13.57,0,0,1,.392,3.234v5.277h-5.175a4.933,4.933,0,0,0-4.919,4.919v15.627H171.787Zm18.64,4.068V583.2h26.827v14.775Z" transform="translate(-170 -473.949)" fill="#a5a5a5"/>
  </g>
</svg>
