<svg id="nacional" xmlns="http://www.w3.org/2000/svg" width="126" height="126" viewBox="0 0 126 126">
  <g id="Grupo_94" data-name="Grupo 94">
    <path id="Caminho_163" data-name="Caminho 163" d="M294.161,190.516A32.436,32.436,0,0,0,264.275,170.7H203.158A32.436,32.436,0,0,0,170.7,203.141v61.117A32.436,32.436,0,0,0,203.141,296.7h61.117A32.436,32.436,0,0,0,296.7,264.258v-61.1A32.1,32.1,0,0,0,294.161,190.516Zm.767,73.743a30.672,30.672,0,0,1-30.669,30.669h-61.1a30.672,30.672,0,0,1-30.669-30.669v-61.1a30.672,30.672,0,0,1,30.669-30.669h61.117a30.672,30.672,0,0,1,30.669,30.669v61.1Z" transform="translate(-170.7 -170.7)" fill="#a5a5a5"/>
    <path id="Caminho_164" data-name="Caminho 164" d="M262.3,287.1l-56.04,42.358a.895.895,0,0,0,0,1.431l56.125,42.358a.838.838,0,0,0,1.056,0l56.125-42.375a.895.895,0,0,0,0-1.431L263.354,287.1A.846.846,0,0,0,262.3,287.1Zm.613,84.307-54.642-41.25,54.557-41.25,54.728,41.25Z" transform="translate(-199.902 -267.111)" fill="#a5a5a5"/>
    <path id="Caminho_165" data-name="Caminho 165" d="M390.777,417.693v.017a25.144,25.144,0,0,0,47.878,14.534.611.611,0,0,0,.068-.187,24.9,24.9,0,0,0,1.874-9.508,25.147,25.147,0,0,0-49.821-4.856Zm24.672,28.25a23.4,23.4,0,0,1-23.377-23.377,24.212,24.212,0,0,1,.341-4.038,44.092,44.092,0,0,1,44.419,13.46A23.391,23.391,0,0,1,415.449,445.943Zm23.377-23.377a23.284,23.284,0,0,1-1.261,7.582,45.906,45.906,0,0,0-44.726-13.563,23.383,23.383,0,0,1,45.987,5.98Z" transform="translate(-352.883 -358.774)" fill="#a5a5a5"/>
  </g>
</svg>
