<svg id="profissional" xmlns="http://www.w3.org/2000/svg" width="126" height="126" viewBox="0 0 126 126">
  <g id="profissional-2" data-name="profissional">
    <path id="Caminho_166" data-name="Caminho 166" d="M361.424,253.984a10.61,10.61,0,0,0-10.56-10.544c-5.058,0-12.337-3-15.908-6.569a10.486,10.486,0,0,0-7.467-3.071h0a10.456,10.456,0,0,0-7.467,3.071c-3.571,3.566-10.85,6.569-15.908,6.569a10.61,10.61,0,0,0-10.56,10.544c0,5.05-3.007,12.318-6.579,15.884a10.575,10.575,0,0,0,0,14.912c3.571,3.566,6.579,10.834,6.579,15.884a10.465,10.465,0,0,0,3.11,7.439,10.574,10.574,0,0,0,5.417,2.918l-10.167,29.192a.88.88,0,0,0,.205.9.935.935,0,0,0,.906.239l16.181-4.982,9.962,12.421a.927.927,0,0,0,.7.341.642.642,0,0,0,.171-.017.9.9,0,0,0,.684-.6l5.417-16.993,11.072,17.2a.9.9,0,0,0,.752.409h0a.9.9,0,0,0,.752-.409l8.749-13.735,14.968,1.245a.88.88,0,0,0,.82-.409.892.892,0,0,0,.017-.921l-13.653-23.63c.427-.034.854-.051,1.247-.051h.017a10.628,10.628,0,0,0,10.56-10.561c0-5.05,3.007-12.318,6.578-15.884a10.575,10.575,0,0,0,0-14.912C364.448,266.285,361.424,259.017,361.424,253.984ZM319.509,346.39l-9.3-11.6a.861.861,0,0,0-.957-.29l-15.1,4.641,9.723-27.93h.222c5.058,0,12.337,3,15.908,6.569a10.486,10.486,0,0,0,7.467,3.071h.171Zm41.351-12.063-13.806-1.143a.88.88,0,0,0-.82.409l-8.287,13.018L327.079,329.72a.835.835,0,0,0-.273-.273l2.8-8.787a10.39,10.39,0,0,0,5.365-2.866c2.871-2.866,8.168-5.374,12.747-6.245Zm5.9-50.809c-3.913,3.907-7.108,11.6-7.108,17.13a8.846,8.846,0,0,1-8.8,8.787c-5.536,0-13.225,3.191-17.155,7.1a8.912,8.912,0,0,1-12.422,0c-3.913-3.907-11.619-7.1-17.155-7.1a8.915,8.915,0,0,1-8.8-8.787c0-5.528-3.2-13.223-7.108-17.13a8.88,8.88,0,0,1,0-12.4c3.913-3.907,7.108-11.6,7.108-17.13a8.915,8.915,0,0,1,8.8-8.787c5.536,0,13.242-3.191,17.155-7.1a8.923,8.923,0,0,1,12.439,0c3.913,3.907,11.619,7.1,17.155,7.1a8.915,8.915,0,0,1,8.8,8.787c0,5.528,3.2,13.223,7.108,17.13A8.9,8.9,0,0,1,366.755,283.518Z" transform="translate(-264.489 -223.137)" fill="#a5a5a5"/>
    <path id="Caminho_167" data-name="Caminho 167" d="M419.767,335.032a17.914,17.914,0,0,1-4.511-10.851,7.518,7.518,0,0,0-7.6-7.592,18.011,18.011,0,0,1-10.867-4.5,7.788,7.788,0,0,0-10.8-.017l-.017.017a17.969,17.969,0,0,1-10.867,4.5,7.518,7.518,0,0,0-7.6,7.592,17.956,17.956,0,0,1-4.511,10.851,7.76,7.76,0,0,0-.017,10.783l.017.017a17.914,17.914,0,0,1,4.511,10.851,7.518,7.518,0,0,0,7.6,7.592,18.011,18.011,0,0,1,10.867,4.5,7.568,7.568,0,0,0,5.365,2.184,7.857,7.857,0,0,0,5.434-2.167l.017-.017a17.969,17.969,0,0,1,10.867-4.5,7.7,7.7,0,0,0,7.6-7.592,17.956,17.956,0,0,1,4.511-10.851,7.781,7.781,0,0,0,0-10.8Zm-1.264,9.537a19.66,19.66,0,0,0-5.041,12.1,5.967,5.967,0,0,1-5.827,5.818,19.8,19.8,0,0,0-12.115,5.016,5.98,5.98,0,0,1-8.3,0,19.725,19.725,0,0,0-12.132-5.033,5.765,5.765,0,0,1-5.827-5.818,19.739,19.739,0,0,0-5.024-12.1,5.958,5.958,0,0,1,0-8.292,19.66,19.66,0,0,0,5.041-12.1,5.765,5.765,0,0,1,5.827-5.818,19.8,19.8,0,0,0,12.115-5.016,5.98,5.98,0,0,1,8.3,0,19.725,19.725,0,0,0,12.132,5.033,5.765,5.765,0,0,1,5.827,5.818,19.739,19.739,0,0,0,5.024,12.1A5.975,5.975,0,0,1,418.5,344.569Z" transform="translate(-328.249 -286.253)" fill="#a5a5a5"/>
    <path id="Caminho_168" data-name="Caminho 168" d="M467.506,406.914a18.064,18.064,0,1,1-.051-27.827.885.885,0,1,0,1.128-1.365,19.83,19.83,0,1,0,.051,30.557.889.889,0,0,0,.12-1.245A.862.862,0,0,0,467.506,406.914Z" transform="translate(-390.682 -338.753)" fill="#a5a5a5"/>
    <path id="Caminho_169" data-name="Caminho 169" d="M493.694,423.234a.872.872,0,0,0-.82-.478.9.9,0,0,0-.786.546l-1.982,4.658-5.758-11.67a.88.88,0,0,0-.8-.495.907.907,0,0,0-.8.512L479.221,424h-2.426a.888.888,0,0,0-.8.512L470.9,435.621a.878.878,0,0,0,.444,1.177.933.933,0,0,0,.376.085.86.86,0,0,0,.8-.512l4.853-10.578H479.8a.888.888,0,0,0,.8-.512l2.99-6.518,8.68,17.642a.894.894,0,0,0,1.606-.785l-2.734-5.545,1.845-4.334,5.485,10.527a.869.869,0,0,0,.786.478.911.911,0,0,0,.41-.1.88.88,0,0,0,.376-1.194Z" transform="translate(-419.468 -374.08)" fill="#a5a5a5"/>
    <path id="Caminho_170" data-name="Caminho 170" d="M291.345,209.723a63.024,63.024,0,0,0-13.5-20,63.1,63.1,0,0,0-73.338-11.482,62.885,62.885,0,0,0-19.155,96.79.884.884,0,0,0,1.35-1.143,61.229,61.229,0,1,1,93.176-.034.872.872,0,0,0,.1,1.245.929.929,0,0,0,.581.2.911.911,0,0,0,.683-.307A62.871,62.871,0,0,0,296.3,234.189,62.129,62.129,0,0,0,291.345,209.723Z" transform="translate(-170.3 -171.3)" fill="#a5a5a5"/>
  </g>
</svg>
